<?xml version="1.0" encoding="iso-8859-1"?>
<!-- Generator: Adobe Illustrator 19.0.0, SVG Export Plug-In . SVG Version: 6.00 Build 0)  -->
<svg version="1.1" id="Capa_1" xmlns="http://www.w3.org/2000/svg" xmlns:xlink="http://www.w3.org/1999/xlink" x="0px" y="0px"
	 viewBox="0 0 512 512" style="enable-background:new 0 0 512 512;" xml:space="preserve">
<path style="fill:#407AE6;" d="M256,0C158.943,0,79.981,78.962,79.981,176.019c0,94.273,162.587,322.995,169.509,332.686
	c3.136,4.392,9.884,4.393,13.021,0c6.922-9.69,169.509-238.413,169.509-332.686C432.019,78.962,353.058,0,256,0z"/>
<path style="fill:#1349D1;" d="M111.984,176.019c0-91.663,70.432-167.172,160.017-175.284C266.729,0.258,261.395,0,256,0
	C158.943,0,79.981,78.962,79.981,176.019c0,94.273,162.587,322.995,169.509,332.686c3.136,4.392,9.884,4.393,13.021,0
	c0.877-1.228,4.259-5.982,9.491-13.529C235.962,443.184,111.984,258.342,111.984,176.019z"/>
<path style="fill:#F6F5F5;" d="M256,32.004c-79.411,0-144.016,64.605-144.016,144.016S176.59,320.035,256,320.035
	s144.016-64.605,144.016-144.016S335.412,32.004,256,32.004z"/>
<path style="fill:#F58E11;" d="M331.758,104.857c-18.106-20.876-45.719-32.85-75.757-32.85
	c-57.352,0-104.011,46.659-104.011,104.011S198.648,280.031,256,280.031c4.418,0,8.001-3.582,8.001-8.001
	c0-4.418-3.582-8.001-8.001-8.001c-48.528,0-88.01-39.481-88.01-88.01S207.472,88.01,256,88.01c25.398,0,48.603,9.962,63.668,27.333
	c14.002,16.144,19.68,36.734,16.421,59.546c-2.771,19.398-14.581,34.375-24.398,37.647c-5.288,1.763-8.256-0.394-10.029-2.168
	c-12.371-12.37-5.337-55.662,2.002-80.042c1.276-4.229-1.118-8.694-5.35-9.971c-4.229-1.276-8.694,1.118-9.971,5.35
	c-0.685,2.27-2.941,10.027-5.07,20.349c-0.429-0.971-0.875-1.933-1.357-2.871c-6.357-12.376-16.481-20.321-28.504-22.371
	c-12.019-2.047-24.207,2.09-34.308,11.659c-9.477,8.978-16.042,21.816-18.485,36.152c-2.445,14.336-0.507,28.625,5.459,40.235
	c6.357,12.376,16.481,20.321,28.504,22.371c2.012,0.343,4.026,0.513,6.038,0.513c10.003,0,19.859-4.204,28.27-12.171
	c4.834-4.579,8.904-10.167,12.062-16.441c1.719,7.376,4.685,13.844,9.393,18.553c7.073,7.072,16.696,9.272,26.405,6.034
	c17.008-5.669,31.802-26.935,35.179-50.565C355.809,150.002,348.644,124.329,331.758,104.857z M271.604,180.728
	c-1.866,10.944-6.738,20.613-13.717,27.225c-6.356,6.021-13.673,8.685-20.612,7.502c-6.938-1.183-12.96-6.123-16.961-13.91
	c-4.393-8.551-5.785-19.288-3.918-30.232l0,0c1.866-10.944,6.738-20.613,13.717-27.225c5.369-5.086,11.425-7.777,17.358-7.777
	c1.09,0,2.177,0.091,3.254,0.275c6.938,1.183,12.96,6.123,16.961,13.91C272.078,159.045,273.47,169.783,271.604,180.728z"/>
<g>
</g>
<g>
</g>
<g>
</g>
<g>
</g>
<g>
</g>
<g>
</g>
<g>
</g>
<g>
</g>
<g>
</g>
<g>
</g>
<g>
</g>
<g>
</g>
<g>
</g>
<g>
</g>
<g>
</g>
</svg>
